<?xml version="1.0" standalone="no"?>
<!DOCTYPE svg PUBLIC "-//W3C//DTD SVG 1.1//EN" "http://www.w3.org/Graphics/SVG/1.1/DTD/svg11.dtd">
<svg width="100%" height="100%" viewBox="0 0 29 29" version="1.1" xmlns="http://www.w3.org/2000/svg" xmlns:xlink="http://www.w3.org/1999/xlink" xml:space="preserve" style="fill-rule:evenodd;clip-rule:evenodd;stroke-linejoin:round;stroke-miterlimit:1.41421;">
    <path d="M14.126,12.999C14.135,13.013 14.142,13.028 14.152,13.043L14.098,13.044C14.107,13.029 14.116,13.013 14.126,12.999ZM28.252,4.848L28.252,19.597C28.252,21.212 26.75,22.526 24.905,22.526L18.268,22.526L14.125,26.334L9.983,22.526L3.347,22.526C1.501,22.525 0,21.212 0,19.596L0,4.848C0,3.233 1.501,1.919 3.347,1.919L24.904,1.919C26.75,1.919 28.25,3.232 28.252,4.848ZM20.922,11.022C20.922,8.986 19.272,7.335 17.235,7.335C15.927,7.335 14.78,8.018 14.126,9.046C13.471,8.018 12.325,7.335 11.017,7.335C8.98,7.335 7.33,8.986 7.33,11.022C7.33,11.993 7.707,12.873 8.32,13.532L13.861,18.672L19.607,13.841C20.41,13.165 20.921,12.154 20.922,11.022Z" style="fill:rgb(217,38,38);fill-rule:nonzero;"/>
</svg>
